# xmcd CD database file
#
# Track frame offsets:
#	150
#	15744
#	33490
#	47466
#	63899
#	74927
#	90399
#	104956
#	119079
#	132646
#	145355
#	158542
#
# Disc length: 2360 seconds
#
# Revision: 1
# Processed by: cddbd v1.5.2PL0 Copyright (c) Steve Scherf et al.
# Submitted via: CDex 1.86
#
DISCID=b409360c
DTITLE=Rhonda Vincent and Daryle Singletary - American Grandstand
DYEAR=2017
DGENRE=Country
TTITLE0=Above and Beyond
TTITLE1=One
TTITLE2=After The Fire Is Gone
TTITLE3=American Grandstand
TTITLE4=Slowly But Surely
TTITLE5=As We Kiss Our World Goodbye
TTITLE6=Can't Live Life
TTITLE7=Golden Ring
TTITLE8=We Must Have Been Out Of Our Minds
TTITLE9=Louisiana Woman Mississippi Man
TTITLE10=A Picture Of Me Without You
TTITLE11=Up This Hill And Down
EXTD=YEAR: 2017
EXTT0=
EXTT1=
EXTT2=
EXTT3=
EXTT4=
EXTT5=
EXTT6=
EXTT7=
EXTT8=
EXTT9=
EXTT10=
EXTT11=
PLAYORDER=
